<?xml version="1.0" encoding="utf-8"?>
<!-- Generator: Adobe Illustrator 23.0.1, SVG Export Plug-In . SVG Version: 6.00 Build 0)  -->
<svg version="1.1" xmlns="http://www.w3.org/2000/svg" xmlns:xlink="http://www.w3.org/1999/xlink" x="0px" y="0px"
	 viewBox="0 0 91.9 126" style="enable-background:new 0 0 91.9 126;" xml:space="preserve">
<style type="text/css">
	.st0{fill:#9AB1BD;}
	.st1{fill:#F57F17;}
	.st2{fill:#869DA8;}
	.st3{fill:#B7CEDA;}
</style>
<g id="Layer_1">
	<g>
		<g>
			<path class="st0" d="M59.8,45.7L47.5,57.1L46.4,55L36.1,34.2L42,20.9c1.5-2.7,3.9-2.7,5.4,0l11,22.1L59.8,45.7z"/>
			<polygon class="st1" points="1.6,99.8 1.6,99.8 1.6,99.8 			"/>
			<polygon class="st2" points="47.5,57.1 1.6,99.8 1.6,99.8 36.1,34.2 46.4,55 			"/>
			<path class="st3" d="M90.2,99.2L50.6,123c-1.4,0.8-5,1.1-5,1.1s-3.4-0.4-4.6-1.1L1.6,99.8v0L46.4,55l12-12l14.8-14.8
				c2.2-2.1,4.5-1.4,5,1.6L90.2,99.2z"/>
			<path class="st0" d="M36.1,34.2L1.6,99.8v0h0L17,3.8c0.6-3,2.3-3.3,3.8-0.6L36.1,34.2z"/>
		</g>
	</g>
</g>
<g id="Layer_2">
</g>
</svg>